<?xml version="1.0" encoding="UTF-8"?>
<svg id="Layer_1" xmlns="http://www.w3.org/2000/svg" viewBox="0 0 699.54 210.07">
  <polygon points="438.64 0 438.5 .15 435.88 25.1 436.03 25.25 438.93 25.25 441.83 25.25 441.98 25.1 439.51 .15 439.37 0 438.64 0"/>
  <polygon points="453.01 26.84 453.15 26.7 457.36 4.35 457.21 4.21 456.49 4.06 456.34 4.21 447.06 25.39 447.2 25.54 453.01 26.84"/>
  <g>
    <path d="M448.65,36.42c1.74,0,3.34-1.45,3.34-3.48,0-1.89-1.6-3.34-3.34-3.34-1.89,0-3.48,1.45-3.48,3.34,0,2.03,1.6,3.48,3.48,3.48"/>
    <path d="M438.93,35.41c1.74,0,3.34-1.45,3.34-3.48,0-1.89-1.6-3.34-3.34-3.34-1.89,0-3.48,1.45-3.48,3.34,0,2.03,1.6,3.48,3.48,3.48"/>
  </g>
  <polygon points="424.86 26.84 430.66 25.54 430.81 25.39 421.52 4.21 421.37 4.06 420.65 4.21 420.5 4.35 424.71 26.7 424.86 26.84"/>
  <g>
    <path d="M425.73,32.94c0,2.03,1.6,3.48,3.48,3.48,1.74,0,3.34-1.45,3.34-3.48,0-1.89-1.6-3.34-3.34-3.34-1.89,0-3.48,1.45-3.48,3.34"/>
    <path d="M28.88,90.11c-2.32,0-7.55-.29-9.87-.72v-30.04h11.32c10.01,0,17.99,4.06,17.99,14.66s-6.96,16.11-19.44,16.11M29.75,42.66H.15l-.15.15s.73,7.11.73,19.44v62.4c0,12.33-.73,19.44-.73,19.44l.15.14h19.44l.14-.14s-.72-7.11-.72-19.44v-18.28l.15-.15c2.61.29,8.56.58,10.59.58,20.02,0,37.15-12.19,37.15-32.79s-17.27-31.34-37.15-31.34"/>
    <path d="M96.75,102.73l14.37-35.84h.15l15.53,35.84h-30.04ZM122.43,50.93c-2.18-5.08-2.9-8.13-2.9-8.13l-.14-.14h-15.82l-.15.14s-.58,3.05-2.76,8.13l-34.25,82.42c-2.9,6.97-5.8,10.74-5.8,10.74v.15h20.02l.15-.15c0-.58.44-3.05,2.9-9.14l6.24-15.53h44.11l6.67,15.53c2.18,5.95,3.48,9.14,3.48,9.14l.14.15h20.02v-.15s-2.61-3.77-5.8-10.74l-36.13-82.42Z"/>
    <path d="M264.6,42.81l-.15-.15h-17.7l-.15.15s.72,7.11.72,19.44v51.08h-.14l-54.85-70.67h-19.44l-.15.15c2.18,4.64,3.34,7.84,3.34,10.01v71.83c0,12.33-.72,19.44-.72,19.44l.15.15h17.7l.15-.15s-.72-7.11-.72-19.44v-52.09h.14l55.14,71.68h16.54l.15-.15s-.72-7.11-.72-19.44v-62.4c0-12.33.72-19.44.72-19.44"/>
    <path d="M318.58,128.42c-4.93,0-9.43-.15-12.04-.87-1.6-.44-1.89-1.02-1.89-3.77V59.2h13.49c21.91,0,35.99,14.8,35.99,34.53s-14.07,34.68-35.55,34.68M319.74,42.66h-33.95l-.15.15s.72,7.11.72,19.44v62.4c0,12.33-.72,19.44-.72,19.44l.15.14h10.45c6.87,0,14.51.87,23.22.87,31.2,0,53.25-22.05,53.25-51.51s-21.62-50.93-52.96-50.93"/>
    <path d="M438.93,128.71c-18.86,0-33.52-15.38-33.52-35.41s14.66-35.41,33.52-35.41,33.66,15.38,33.66,35.41-14.66,35.41-33.66,35.41M438.93,41.21c-29.31,0-52.09,22.64-52.09,52.09s22.78,52.09,52.09,52.09,52.09-22.49,52.09-52.09-22.49-52.09-52.09-52.09"/>
    <path d="M536.59,89.09c-2.32,0-6.39,0-9.14-.58v-29.31h11.17c10.88,0,16.69,7.11,16.69,15.24,0,7.69-5.95,14.66-18.72,14.66M563.44,109.7c-2.47-4.06-6.24-7.26-10.01-8.27v-.15c10.59-2.32,20.46-14.66,20.46-26.99,0-16.83-12.91-31.63-32.79-31.63h-32.5l-.15.15s.72,7.11.72,19.44v62.4c0,12.33-.72,19.44-.72,19.44l.15.15h19.44l.15-.15s-.72-7.11-.72-19.44v-19.44c9.72,0,13.49,1.89,16.98,7.4l8.27,13.35c6.82,11.03,9.72,18.14,9.72,18.14l.15.15h23.22v-.15s-5.8-7.11-12.48-18.14l-9.87-16.25Z"/>
    <path d="M631.93,102.73l14.37-35.84h.15l15.53,35.84h-30.04ZM693.74,133.35l-36.13-82.42c-2.18-5.08-2.9-8.13-2.9-8.13l-.15-.15h-15.82l-.15.15s-.58,3.05-2.76,8.13l-34.24,82.42c-2.9,6.96-5.8,10.74-5.8,10.74v.15h20.02l.15-.15c0-.58.44-3.05,2.9-9.14l6.24-15.53h44.11l6.67,15.53c2.18,5.95,3.48,9.14,3.48,9.14l.15.15h20.02v-.15s-2.61-3.77-5.8-10.74"/>
  </g>
  <polygon points="0 175.46 0 209.48 24.45 209.48 24.45 202.73 7.49 202.73 7.49 175.46 0 175.46"/>
  <path d="M49.97,184.21l4.52,11.03h-9.04l4.52-11.03ZM46.61,175.21l-14.58,34.27h7.63l3.11-7.63h14.39l3.11,7.63h7.83l-14.58-34.27h-6.9Z"/>
  <path d="M93.42,202.92c1.65,0,2.95-.3,3.89-.9.94-.6,1.41-1.53,1.41-2.79v-.1c0-1.13-.44-2.03-1.31-2.7-.88-.67-2.28-1-4.23-1h-8.65v7.48h8.89ZM91.43,189.21c1.65,0,2.97-.28,3.94-.85.97-.57,1.46-1.48,1.46-2.75v-.1c0-1.14-.42-2-1.26-2.6-.84-.6-2.06-.9-3.65-.9h-7.39v7.19h6.9ZM77.24,175.46h15.77c3.91,0,6.87,1.01,8.88,3.01,1.55,1.55,2.33,3.48,2.33,5.78v.1c0,.97-.12,1.83-.36,2.58s-.56,1.42-.97,2.02c-.4.6-.87,1.12-1.4,1.58-.53.45-1.1.84-1.71,1.17,1.97.75,3.52,1.76,4.64,3.04,1.13,1.28,1.69,3.06,1.69,5.33v.1c0,1.56-.3,2.92-.9,4.09-.6,1.17-1.46,2.14-2.57,2.92-1.11.78-2.46,1.36-4.03,1.75-1.57.39-3.31.58-5.22.58h-16.16v-34.03Z"/>
  <rect x="115.54" y="190.87" width="14.97" height="7.1"/>
  <g>
    <path d="M158.26,210.07c-2.66,0-5.08-.44-7.27-1.31-2.19-.88-4.07-2.09-5.64-3.65-1.57-1.55-2.79-3.4-3.67-5.54-.87-2.14-1.31-4.47-1.31-7v-.09c0-2.43.44-4.71,1.34-6.83.89-2.12,2.13-3.99,3.72-5.59,1.59-1.6,3.47-2.87,5.64-3.79,2.17-.93,4.55-1.39,7.15-1.39,1.52,0,2.91.11,4.15.32,1.25.21,2.41.51,3.48.9,1.07.39,2.07.88,3.01,1.46.94.58,1.85,1.25,2.72,1.99l-4.72,5.69c-.65-.55-1.3-1.04-1.94-1.46-.65-.42-1.32-.78-2.02-1.07-.7-.29-1.45-.52-2.26-.68-.81-.16-1.7-.24-2.67-.24-1.36,0-2.63.28-3.82.85-1.18.57-2.22,1.33-3.11,2.29-.89.96-1.59,2.08-2.09,3.36-.5,1.28-.75,2.65-.75,4.11v.1c0,1.56.25,3,.75,4.31.5,1.32,1.22,2.46,2.14,3.44.92.97,2.01,1.73,3.26,2.27,1.25.54,2.63.8,4.15.8,2.79,0,5.14-.68,7.05-2.05v-4.89h-7.54v-6.47h14.78v14.78c-1.75,1.49-3.83,2.76-6.25,3.82-2.41,1.05-5.18,1.58-8.29,1.58"/>
    <path d="M199.92,191.98c1.85,0,3.26-.44,4.25-1.31.99-.88,1.48-2.04,1.48-3.5v-.1c0-1.62-.52-2.84-1.55-3.65-1.04-.81-2.48-1.21-4.33-1.21h-7.44v9.77h7.58ZM184.85,175.46h15.55c4.31,0,7.62,1.15,9.92,3.45,1.94,1.95,2.92,4.54,2.92,7.78v.1c0,2.75-.67,5-2.02,6.73-1.35,1.73-3.1,3.01-5.27,3.82l8.31,12.15h-8.75l-7.29-10.89h-5.88v10.89h-7.49v-34.03Z"/>
    <path d="M241.48,203.16c1.49,0,2.87-.28,4.13-.83,1.26-.55,2.34-1.31,3.23-2.28.89-.97,1.59-2.1,2.09-3.38.5-1.28.75-2.65.75-4.11v-.09c0-1.46-.25-2.84-.75-4.13-.5-1.3-1.22-2.43-2.14-3.4-.92-.97-2.02-1.74-3.28-2.31-1.26-.57-2.64-.85-4.13-.85s-2.91.28-4.16.83-2.32,1.31-3.21,2.28c-.89.97-1.59,2.1-2.09,3.38-.5,1.28-.75,2.65-.75,4.11v.1c0,1.46.25,2.84.75,4.13.5,1.3,1.22,2.43,2.14,3.4.92.97,2.01,1.74,3.26,2.31,1.25.57,2.63.85,4.16.85M241.38,210.07c-2.63,0-5.04-.46-7.24-1.39-2.21-.93-4.11-2.17-5.71-3.74s-2.85-3.42-3.74-5.54c-.89-2.12-1.34-4.4-1.34-6.83v-.09c0-2.43.45-4.71,1.36-6.83.91-2.12,2.16-3.99,3.77-5.59,1.6-1.6,3.52-2.87,5.74-3.79,2.22-.93,4.64-1.39,7.27-1.39s5.04.46,7.24,1.39c2.2.92,4.11,2.17,5.71,3.74,1.61,1.57,2.85,3.42,3.74,5.54.89,2.12,1.33,4.4,1.33,6.83v.1c0,2.43-.45,4.71-1.36,6.83-.91,2.12-2.16,3.99-3.77,5.59-1.6,1.6-3.51,2.87-5.74,3.79-2.22.92-4.64,1.39-7.27,1.39"/>
  </g>
  <polygon points="289.16 175.36 281.53 198.5 274.48 175.46 266.46 175.46 278.08 209.73 284.59 209.73 292.27 187.46 299.95 209.73 306.46 209.73 318.08 175.46 310.25 175.46 303.21 198.5 295.58 175.36 289.16 175.36"/>
  <polygon points="351.33 175.46 351.33 196.41 335.39 175.46 328.48 175.46 328.48 209.48 335.87 209.48 335.87 187.85 352.35 209.48 358.72 209.48 358.72 175.46 351.33 175.46"/>
  <path d="M404.45,202.73c1.53,0,2.92-.24,4.18-.73,1.26-.49,2.34-1.18,3.23-2.09.89-.91,1.59-1.98,2.09-3.21.5-1.23.75-2.61.75-4.13v-.1c0-1.49-.25-2.87-.75-4.13-.5-1.26-1.2-2.35-2.09-3.26-.89-.9-1.97-1.61-3.23-2.11-1.26-.5-2.66-.75-4.18-.75h-5.78v20.51h5.78ZM391.19,175.46h13.27c2.66,0,5.1.43,7.32,1.29,2.22.86,4.13,2.05,5.73,3.57,1.61,1.52,2.84,3.31,3.72,5.37.88,2.06,1.31,4.29,1.31,6.68v.1c0,2.4-.44,4.63-1.31,6.71-.88,2.07-2.11,3.87-3.72,5.39-1.6,1.52-3.52,2.72-5.73,3.6-2.22.88-4.66,1.31-7.32,1.31h-13.27v-34.03Z"/>
  <rect x="434.4" y="175.46" width="7.49" height="34.03"/>
  <path d="M470.27,184.21l4.52,11.03h-9.04l4.52-11.03ZM466.91,175.21l-14.58,34.27h7.63l3.11-7.63h14.39l3.11,7.63h7.82l-14.58-34.27h-6.9Z"/>
  <polygon points="524.46 175.46 515.52 189.85 506.58 175.46 498.51 175.46 498.51 209.48 505.89 209.48 505.89 187.42 515.37 201.8 515.57 201.8 525.14 187.27 525.14 209.48 532.53 209.48 532.53 175.46 524.46 175.46"/>
  <path d="M561.21,203.16c1.49,0,2.87-.28,4.13-.83,1.26-.55,2.34-1.31,3.23-2.28.89-.97,1.59-2.1,2.09-3.38.5-1.28.75-2.65.75-4.11v-.09c0-1.46-.25-2.84-.75-4.13-.5-1.3-1.22-2.43-2.14-3.4-.92-.97-2.02-1.74-3.28-2.31s-2.64-.85-4.13-.85-2.91.28-4.16.83c-1.25.55-2.32,1.31-3.21,2.28-.89.97-1.59,2.1-2.09,3.38-.5,1.28-.75,2.65-.75,4.11v.1c0,1.46.25,2.84.75,4.13.5,1.3,1.21,2.43,2.14,3.4.92.97,2.01,1.74,3.26,2.31,1.25.57,2.63.85,4.15.85M561.11,210.07c-2.63,0-5.04-.46-7.24-1.39-2.21-.93-4.11-2.17-5.71-3.74-1.6-1.57-2.85-3.42-3.74-5.54-.89-2.12-1.34-4.4-1.34-6.83v-.09c0-2.43.45-4.71,1.36-6.83.91-2.12,2.16-3.99,3.77-5.59,1.6-1.6,3.52-2.87,5.73-3.79,2.22-.93,4.64-1.39,7.27-1.39s5.04.46,7.24,1.39c2.2.92,4.11,2.17,5.71,3.74,1.6,1.57,2.85,3.42,3.74,5.54.89,2.12,1.34,4.4,1.34,6.83v.1c0,2.43-.45,4.71-1.36,6.83-.91,2.12-2.16,3.99-3.77,5.59-1.6,1.6-3.51,2.87-5.73,3.79-2.22.92-4.64,1.39-7.27,1.39"/>
  <polygon points="611.66 175.46 611.66 196.41 595.72 175.46 588.82 175.46 588.82 209.48 596.21 209.48 596.21 187.85 612.68 209.48 619.05 209.48 619.05 175.46 611.66 175.46"/>
  <g>
    <path d="M645.35,202.73c1.52,0,2.92-.24,4.18-.73,1.26-.49,2.34-1.18,3.23-2.09.89-.91,1.59-1.98,2.09-3.21.5-1.23.75-2.61.75-4.13v-.1c0-1.49-.25-2.87-.75-4.13-.5-1.26-1.2-2.35-2.09-3.26-.89-.9-1.97-1.61-3.23-2.11-1.26-.5-2.66-.75-4.18-.75h-5.78v20.51h5.78ZM632.08,175.46h13.27c2.66,0,5.09.43,7.32,1.29,2.22.86,4.13,2.05,5.73,3.57,1.61,1.52,2.84,3.31,3.72,5.37.88,2.06,1.31,4.29,1.31,6.68v.1c0,2.4-.44,4.63-1.31,6.71-.88,2.07-2.11,3.87-3.72,5.39-1.6,1.52-3.51,2.72-5.73,3.6-2.22.88-4.66,1.31-7.32,1.31h-13.27v-34.03Z"/>
    <path d="M687.1,209.97c-2.59,0-5.14-.44-7.63-1.34-2.5-.89-4.76-2.26-6.81-4.11l4.42-5.3c1.56,1.26,3.15,2.27,4.79,3.01,1.64.74,3.43,1.12,5.37,1.12,1.55,0,2.76-.28,3.62-.85.86-.57,1.29-1.35,1.29-2.36v-.09c0-.49-.09-.92-.27-1.29-.18-.37-.52-.72-1.02-1.04-.5-.32-1.2-.65-2.1-.97-.89-.32-2.05-.66-3.49-1.02-1.72-.42-3.28-.89-4.68-1.41-1.4-.52-2.58-1.16-3.56-1.92-.98-.76-1.73-1.71-2.27-2.84-.54-1.14-.8-2.55-.8-4.23v-.1c0-1.55.29-2.95.87-4.2.58-1.25,1.39-2.32,2.44-3.23,1.04-.91,2.3-1.61,3.75-2.09,1.45-.49,3.05-.73,4.81-.73,2.49,0,4.78.37,6.88,1.12,2.09.75,4.01,1.82,5.76,3.21l-3.89,5.64c-1.53-1.04-3.01-1.85-4.47-2.45-1.46-.6-2.92-.9-4.37-.9s-2.55.28-3.28.85c-.73.57-1.1,1.27-1.1,2.11v.1c0,.55.11,1.03.32,1.43.21.41.59.77,1.15,1.1.55.32,1.31.63,2.27.92.96.29,2.17.63,3.63,1.02,1.72.45,3.26.96,4.61,1.53,1.35.57,2.49,1.25,3.41,2.04.93.79,1.63,1.73,2.09,2.79.47,1.07.71,2.35.71,3.84v.1c0,1.68-.31,3.18-.92,4.5-.61,1.31-1.47,2.41-2.56,3.3-1.1.89-2.4,1.57-3.92,2.04-1.52.47-3.2.71-5.05.71"/>
  </g>
</svg>