<svg width="165" height="34" viewBox="0 0 165 34" fill="none" xmlns="http://www.w3.org/2000/svg">
<g clip-path="url(#clip0_7305_2363)">
<path fill-rule="evenodd" clip-rule="evenodd" d="M22.5808 0.133255C23.0056 0.0926992 23.4318 0.0528675 23.8566 0.020278C24.0436 0.00651792 24.2292 0 24.4111 0C26.2059 0 27.7498 0.667 29.0372 1.99376C29.9911 2.97724 30.4195 4.22433 30.7421 5.51416C30.8986 6.13475 31.0344 6.76069 31.1701 7.3863C31.2212 7.62182 31.2723 7.85729 31.3245 8.09241C30.9756 7.99081 30.599 7.96544 30.2177 8.0325C28.8869 8.26714 27.9953 9.53958 28.2302 10.8685C28.344 11.5123 28.7013 12.0736 29.2377 12.4487C29.6538 12.7399 30.1394 12.892 30.6367 12.892C30.7795 12.892 30.9237 12.8796 31.068 12.8543C31.4459 12.7876 31.7954 12.6372 32.0956 12.4162L33.3378 19.4589C33.4117 19.8731 33.4647 20.2903 33.5111 20.7074V20.7147C33.5509 21.077 33.5979 21.4391 33.645 21.8012C33.7457 22.5773 33.8465 23.3534 33.8771 24.1322C33.9909 27.016 32.4129 29.3169 29.7106 30.3112C29.2742 30.472 28.8234 30.598 28.3732 30.7168C27.9499 30.8268 27.5259 30.9282 27.1011 31.0274C25.0815 31.3847 23.0638 31.7418 21.0464 32.0987C18.1771 32.6065 15.3083 33.1141 12.4349 33.6223C11.9 33.686 11.3658 33.749 10.8294 33.8041C9.86456 33.8989 8.89034 33.9554 7.94657 33.6962C5.63861 33.0639 4.12582 31.5887 3.42777 29.2966C3.29077 28.8468 3.16827 28.392 3.04795 27.938C2.91892 27.4578 2.81092 26.9711 2.72321 26.4823L0.301438 12.7519C0.223878 12.316 0.163714 11.8771 0.120947 11.4353C0.0897782 11.1283 0.0607836 10.8183 0.0383129 10.5098C-0.0501205 9.28513 -0.0211259 8.07497 0.515273 6.93216C1.36481 5.12815 2.74278 3.94117 4.66656 3.40163C5.11669 3.27417 5.57044 3.15757 6.02419 3.04098L6.02423 3.04097C8.291 2.64292 10.5537 2.24548 12.8159 1.84814C16.0688 1.27678 19.3204 0.705649 22.5808 0.133255ZM15.8485 10.6338C16.4922 10.5201 17.1424 10.6643 17.6788 11.0394C18.2152 11.4145 18.5725 11.9758 18.6863 12.6196C18.8001 13.2635 18.6559 13.9131 18.2804 14.4483C17.9049 14.9842 17.3432 15.3412 16.6988 15.4549C16.556 15.4803 16.4132 15.4926 16.2725 15.4926C15.107 15.4926 14.0704 14.6554 13.8609 13.4699C13.6268 12.1409 14.5184 10.8685 15.8485 10.6338ZM10.4192 19.8723C9.90068 19.3422 9.05062 19.3329 8.52056 19.8514C7.9905 20.3699 7.98116 21.22 8.4997 21.7501C10.3121 23.6027 13.2999 24.717 16.4932 24.9935C19.7223 25.2731 23.3587 24.7176 26.6009 23.0054C27.2566 22.6591 27.5074 21.8469 27.1611 21.1912C26.8149 20.5355 26.0026 20.2846 25.3469 20.6309C22.6143 22.0739 19.504 22.5589 16.7248 22.3182C13.9098 22.0745 11.6278 21.1077 10.4192 19.8723Z" fill="#58D854"/>
<path fill-rule="evenodd" clip-rule="evenodd" d="M61.5535 0.124886C63.0751 0.124886 64.3086 1.35839 64.3086 2.88V22.6252C64.3086 24.1468 63.0751 25.3803 61.5535 25.3803C60.0319 25.3803 58.7984 24.1468 58.7984 22.6252V2.88C58.7984 1.35839 60.0319 0.124886 61.5535 0.124886ZM109.889 0.151648C111.41 0.151648 112.644 1.38515 112.644 2.90676V17.2824L114.867 12.6638L114.873 12.6523C115.993 10.3796 118.307 8.94048 120.841 8.94048C124.515 8.94048 127.494 11.9195 127.494 15.5942V15.5943V22.6089C127.494 24.1305 126.261 25.364 124.739 25.364C123.217 25.364 121.984 24.1305 121.984 22.6089V15.5941C121.984 14.9626 121.472 14.4507 120.841 14.4507C120.408 14.4507 120.013 14.6946 119.819 15.0804L116.152 22.698L116.146 22.7096C115.346 24.3327 113.694 25.3604 111.884 25.3602C109.26 25.3598 107.133 23.2327 107.133 20.6089V2.90676C107.133 1.38515 108.367 0.151648 109.889 0.151648ZM87.5282 8.95509C89.0498 8.95514 90.2832 10.1887 90.2832 11.7103L90.283 18.7107C90.2829 19.3422 90.7948 19.8541 91.4263 19.8541C91.8591 19.8541 92.2546 19.6097 92.4484 19.2232L96.1156 11.6306L96.1205 11.6207C96.9206 9.99758 98.5732 8.96986 100.383 8.97012C103.007 8.97049 105.133 11.0976 105.133 13.7214V31.2449C105.133 32.7665 103.9 34 102.378 34C100.857 34 99.6232 32.7665 99.6232 31.2449V17.0377L97.3991 21.6426L97.3942 21.6525C96.274 23.9252 93.9601 25.3643 91.4263 25.3643C87.7516 25.3643 84.7726 22.3852 84.7727 18.7105L84.773 11.7101C84.773 10.1885 86.0066 8.95504 87.5282 8.95509ZM135.004 17.1741C135.004 15.6918 136.217 14.4759 137.715 14.4759C139.213 14.4759 140.425 15.6918 140.425 17.1741C140.425 18.6565 139.213 19.8724 137.715 19.8724C136.217 19.8724 135.004 18.6565 135.004 17.1741ZM137.715 8.96565C133.189 8.96565 129.494 12.6329 129.494 17.1741C129.494 21.7154 133.189 25.3826 137.715 25.3826C142.24 25.3826 145.935 21.7154 145.935 17.1741C145.935 12.6329 142.24 8.96565 137.715 8.96565ZM71.8188 17.1638C71.8189 15.7546 73.1112 14.4548 74.5534 14.4548C75.9959 14.4547 77.2626 15.7292 77.2626 17.1383V19.8625H74.5482C72.9952 19.8625 71.8188 18.6587 71.8188 17.1638ZM74.5533 8.94454C70.1012 8.94461 66.3088 12.6783 66.3086 17.1636V17.1636C66.3085 21.7082 69.9583 25.3727 74.5482 25.3727H79.7625C81.425 25.3727 82.7728 24.0249 82.7728 22.3624V17.1383C82.7728 12.6527 79.0056 8.94447 74.5533 8.94454ZM48.6034 14.258C47.0157 14.258 45.7287 15.5451 45.7287 17.1328L45.729 31.2447C45.729 32.7027 44.5471 33.8847 43.0891 33.8847C41.631 33.8848 40.449 32.7028 40.449 31.2448L40.4487 17.1329C40.4486 12.6291 44.0996 8.97807 48.6034 8.97806C53.5112 8.97804 56.7684 12.9956 56.7982 17.1137L56.7983 17.1233V17.1328C56.7983 20.0105 55.3081 22.6296 52.9642 24.1086L52.9256 24.133L51.4468 24.9961C50.1875 25.731 48.5709 25.306 47.836 24.0467C47.101 22.7875 47.5261 21.1709 48.7853 20.4359L50.1788 19.6227C50.9868 19.0974 51.515 18.1697 51.5183 17.1424C51.5024 15.623 50.3096 14.258 48.6034 14.258ZM153.215 17.1328C153.215 15.5451 154.502 14.258 156.09 14.258C157.796 14.258 158.989 15.623 159.005 17.1424C159.001 18.1697 158.473 19.0974 157.665 19.6227L156.272 20.4359C155.012 21.1709 154.587 22.7875 155.322 24.0467C156.057 25.306 157.674 25.731 158.933 24.9961L160.412 24.133L160.45 24.1086C162.794 22.6296 164.285 20.0105 164.285 17.1328V17.1233L164.284 17.1137C164.255 12.9956 160.997 8.97804 156.09 8.97806C151.586 8.97807 147.935 12.6291 147.935 17.1329L147.935 31.2448C147.935 32.7028 149.117 33.8848 150.575 33.8847C152.033 33.8847 153.215 32.7027 153.215 31.2447L153.215 17.1328Z" fill="white"/>
</g>
<defs>
<clipPath id="clip0_7305_2363">
<rect width="165" height="34" fill="white"/>
</clipPath>
</defs>
</svg>
